<?xml version="1.0" encoding="utf-8"?>
<!-- Generator: Adobe Illustrator 21.0.0, SVG Export Plug-In . SVG Version: 6.00 Build 0)  -->
<svg version="1.1" id="Capa_1" xmlns="http://www.w3.org/2000/svg" xmlns:xlink="http://www.w3.org/1999/xlink" x="0px" y="0px"
	 viewBox="0 0 512 512" style="enable-background:new 0 0 512 512;" xml:space="preserve">
<style type="text/css">
	.st0{fill:#14274E;}
</style>
<path class="st0" d="M511,278.2c0.6-7.3,1-14.8,1-22.2c0-68.4-26.6-132.7-75-181S324.4,0,256,0S123.3,26.6,75,75S0,187.6,0,256
	c0,68.4,26.6,132.7,75,181s112.6,75,181,75s132.7-26.6,181-75c42.7-42.7,68.4-97.8,73.9-157.2C511,279.3,511,278.8,511,278.2z
	 M482,257.7c-30.8-8.7-62.7-13.1-95-13.1c-21.8,0-43.3,2-64.3,6c-3.3-7.7-6.7-15.3-10.2-23c-4.7-10.2-9.6-20.4-14.7-30.5
	c48.5-20.9,94-48,135.8-80.7c30.3,38.5,48.4,87,48.4,139.6C482,256.6,482,257.1,482,257.7z M413.5,94c-39.9,31-83.6,56.5-129.7,76.2
	c-25.1-46.4-53.9-90.7-86.2-132.6c18.6-5,38.2-7.7,58.4-7.7C317.2,30,372.7,54.4,413.5,94z M167.7,48c33.1,42,62.5,86.7,88,133.4
	c-64.8,23.8-133.8,36.3-203.7,36.3c-6.2,0-12.4-0.1-18.6-0.3C46.5,141,98.2,77.6,167.7,48z M30,256c0-2.9,0.1-5.8,0.2-8.6
	c7.2,0.3,14.5,0.4,21.8,0.4c73,0,144.5-12.6,212.5-37.4c1.8-0.6,3.6-1.3,5.3-2c8.1,16.1,15.8,32.5,23,49.1
	C209.6,280.8,137,334.6,90.4,409.6C52.9,369.3,30,315.3,30,256z M112.7,430.6c43-72.4,112.2-124,191.7-145.2
	c22.3,56.1,39.4,114.3,50.7,173.7C325.2,473.7,291.5,482,256,482C201.7,482,151.7,462.7,112.7,430.6z M382.6,443.1
	c-11.3-56-27.4-111-48.3-164.2c17.2-2.9,34.8-4.4,52.7-4.4c31.6,0,62.8,4.6,92.7,13.7C470.5,352.6,434.1,408.2,382.6,443.1z"/>
</svg>
